<svg width="3000" height="2000" viewBox="0 0 3000 2000" fill="none" xmlns="http://www.w3.org/2000/svg">
<g clip-path="url(#clip0_269_59)">
<path d="M2841.49 1253.86C2989.25 1518.27 2775.44 2037.05 1419.44 1676.51C739.559 1495.74 231.712 1902.96 127.062 1618.72C-116.701 956.625 878.799 190.735 1432.38 725.442C1938.38 1214.19 2572.56 772.622 2841.49 1253.86Z" stroke="#E4E4E4" stroke-width="4" stroke-miterlimit="10" stroke-dasharray="32.09 32.09"/>
<path d="M2833.71 1835.88H68.8594C155.388 1196.59 741.27 702.093 1451.28 702.093C2161.25 702.093 2747.18 1196.59 2833.71 1835.88Z" fill="#F6F5F5"/>
<path d="M2473.3 1830.25H1433.36C1384.94 1830.25 1345.69 1791 1345.69 1742.59V250.863C1345.69 202.447 1384.94 163.197 1433.36 163.197H2473.3C2521.72 163.197 2560.97 202.446 2560.97 250.863V1742.59C2560.97 1791 2521.72 1830.25 2473.3 1830.25Z" fill="#005596"/>
<path d="M2455.79 230.38H1455.53V1683.39H2455.79V230.38Z" fill="#F6F5F5"/>
<path d="M2455.79 230.388C2456.1 796.981 2474.39 1480.32 2410.75 1631.62C2130.42 1658.93 1802.18 1667.7 1455.51 1669.33L1587.29 234.768L2455.79 230.388Z" fill="#E4E4E4"/>
<path d="M2365.95 1585.83C1929.01 1655.76 1636.98 1659.45 1400.14 1641.86C1430.83 1315.14 1443.13 772.359 1455.51 230.455L1982.02 231.624L2458.54 263.077C2465.49 825.52 2466.25 1345.06 2365.95 1585.83Z" fill="white"/>
<path d="M2211.52 376.677L1685.33 364.308L1683.45 444.457L2209.64 456.826L2211.52 376.677Z" fill="#005596"/>
<path d="M2312.96 572.806L1838.35 561.649L1837.48 598.335L2312.1 609.491L2312.96 572.806Z" fill="#005596"/>
<path d="M2159.07 649.221L1836.47 641.637L1835.6 678.323L2158.21 685.906L2159.07 649.221Z" fill="#D3DFFF"/>
<path d="M1688.79 560.292L1576.43 557.65L1573.79 670.01L1686.15 672.652L1688.79 560.292Z" fill="white" stroke="#708CD5" stroke-width="6" stroke-miterlimit="10"/>
<path d="M1594.77 587.292C1598.24 600.573 1604.65 656.203 1632.5 640.648C1638.93 637.061 1644.37 627.576 1649.17 622.121C1657.81 612.313 1666.45 602.505 1675.09 592.696C1692.37 573.08 1709.65 553.464 1726.92 533.846C1731.35 528.819 1711.8 516.21 1706.24 522.521C1690.88 539.957 1675.53 557.395 1660.17 574.831C1652.49 583.55 1644.81 592.268 1637.13 600.987C1631.8 607.038 1619.48 626.553 1611.57 628.283C1615.87 629.671 1620.17 631.061 1624.47 632.449C1627.51 634.942 1621.86 617.269 1621.74 616.789C1619.6 608.584 1617.45 600.378 1615.31 592.174C1613.54 585.396 1592.15 577.247 1594.77 587.292Z" fill="#21ADFC"/>
<path d="M2224.38 775.111L1833.54 765.923L1832.68 802.609L2223.52 811.797L2224.38 775.111Z" fill="#005596"/>
<path d="M2306.28 857.069L1831.66 845.913L1830.8 882.598L2305.42 893.755L2306.28 857.069Z" fill="#D3DFFF"/>
<path d="M1683.99 764.567L1571.63 761.925L1568.99 874.285L1681.35 876.926L1683.99 764.567Z" fill="white" stroke="#708CD5" stroke-width="6" stroke-miterlimit="10"/>
<path d="M1589.88 794.741C1593.35 808.022 1599.76 863.653 1627.62 848.097C1634.04 844.51 1639.48 835.025 1644.29 829.57C1652.92 819.761 1661.56 809.954 1670.2 800.145C1687.48 780.529 1704.76 760.912 1722.04 741.295C1726.46 736.268 1706.91 723.659 1701.35 729.969C1685.99 747.406 1670.64 764.844 1655.28 782.28C1647.6 790.999 1639.92 799.717 1632.24 808.436C1626.91 814.487 1614.59 834.001 1606.68 835.732C1610.98 837.12 1615.28 838.51 1619.58 839.898C1622.62 842.391 1616.97 824.718 1616.85 824.237C1614.71 816.033 1612.56 807.827 1610.42 799.623C1608.65 792.845 1587.26 784.696 1589.88 794.741Z" fill="#21ADFC"/>
<path d="M2303.36 981.354L1828.74 970.197L1827.88 1006.88L2302.5 1018.04L2303.36 981.354Z" fill="#005596"/>
<path d="M2039.12 1055.18L1826.86 1050.19L1826 1086.87L2038.26 1091.86L2039.12 1055.18Z" fill="#D3DFFF"/>
<path d="M1679.19 968.841L1566.83 966.2L1564.19 1078.56L1676.55 1081.2L1679.19 968.841Z" fill="white" stroke="#708CD5" stroke-width="6" stroke-miterlimit="10"/>
<path d="M1586.6 1000.47C1590.07 1013.75 1596.48 1069.38 1624.34 1053.83C1630.76 1050.24 1636.2 1040.76 1641.01 1035.3C1649.64 1025.49 1658.28 1015.68 1666.92 1005.87C1684.2 986.259 1701.48 966.642 1718.76 947.025C1723.18 941.998 1703.63 929.389 1698.07 935.699C1682.72 953.136 1667.36 970.574 1652 988.01C1644.32 996.729 1636.64 1005.45 1628.96 1014.17C1623.63 1020.22 1611.31 1039.73 1603.4 1041.46C1607.7 1042.85 1612 1044.24 1616.3 1045.63C1619.34 1048.12 1613.7 1030.45 1613.57 1029.97C1611.43 1021.76 1609.28 1013.56 1607.14 1005.35C1605.37 998.576 1583.98 990.426 1586.6 1000.47Z" fill="#21ADFC"/>
<path d="M2298.56 1185.63L1823.94 1174.47L1823.08 1211.16L2297.7 1222.32L2298.56 1185.63Z" fill="#005596"/>
<path d="M2197 1263.28L1822.06 1254.46L1821.2 1291.15L2196.13 1299.96L2197 1263.28Z" fill="#D3DFFF"/>
<path d="M1674.39 1173.12L1562.03 1170.48L1559.39 1282.83L1671.75 1285.48L1674.39 1173.12Z" fill="white" stroke="#708CD5" stroke-width="6" stroke-miterlimit="10"/>
<path d="M1581.83 1203.41C1585.3 1216.69 1591.7 1272.32 1619.56 1256.77C1625.99 1253.18 1631.43 1243.69 1636.23 1238.24C1644.87 1228.43 1653.51 1218.62 1662.15 1208.81C1679.43 1189.2 1696.71 1169.58 1713.98 1149.96C1718.41 1144.94 1698.86 1132.33 1693.3 1138.64C1677.94 1156.07 1662.58 1173.51 1647.23 1190.95C1639.55 1199.67 1631.87 1208.39 1624.19 1217.1C1618.86 1223.16 1606.54 1242.67 1598.63 1244.4C1602.93 1245.79 1607.23 1247.18 1611.53 1248.57C1614.57 1251.06 1608.92 1233.39 1608.8 1232.91C1606.65 1224.7 1604.51 1216.5 1602.37 1208.29C1600.6 1201.51 1579.2 1193.36 1581.83 1203.41Z" fill="#21ADFC"/>
<path d="M2007.31 1381.63L1819.17 1377.2L1818.31 1413.89L2006.45 1418.31L2007.31 1381.63Z" fill="#005596"/>
<path d="M2291.92 1468.46L1817.29 1457.29L1816.43 1493.98C2000.06 1498.29 2233.87 1506.89 2281.58 1499.57C2288.82 1491.34 2292.72 1481.23 2291.92 1468.46Z" fill="#D3DFFF"/>
<path d="M1671.2 1375.88L1558.84 1373.24L1556.19 1485.6L1668.55 1488.24L1671.2 1375.88Z" fill="white" stroke="#708CD5" stroke-width="6" stroke-miterlimit="10"/>
<path d="M1577.09 1404.57C1580.56 1417.85 1586.97 1473.48 1614.83 1457.93C1621.25 1454.34 1626.69 1444.86 1631.5 1439.4C1640.13 1429.59 1648.77 1419.79 1657.41 1409.98C1674.69 1390.36 1691.97 1370.74 1709.25 1351.13C1713.67 1346.1 1694.12 1333.49 1688.56 1339.8C1673.21 1357.24 1657.85 1374.68 1642.49 1392.11C1634.81 1400.83 1627.13 1409.55 1619.45 1418.27C1614.12 1424.32 1601.8 1443.83 1593.89 1445.56C1598.19 1446.95 1602.49 1448.34 1606.79 1449.73C1609.83 1452.22 1604.19 1434.55 1604.06 1434.07C1601.92 1425.86 1599.77 1417.66 1597.63 1409.45C1595.86 1402.68 1574.47 1394.53 1577.09 1404.57Z" fill="#21ADFC"/>
<path d="M2215.17 230.38V313.747H1691.47V230.38H1728.04V285.439H2178.61V230.38H2215.17Z" fill="#E4E4E4"/>
<path d="M1953.33 105.207C1975.4 105.207 1993.29 88.201 1993.29 67.2233C1993.29 46.2456 1975.4 29.2397 1953.33 29.2397C1931.26 29.2397 1913.36 46.2456 1913.36 67.2233C1913.36 88.201 1931.26 105.207 1953.33 105.207Z" fill="white"/>
<path d="M1089.84 592.263C1073.86 589.24 1058.92 562.539 1053.73 552.301C1052.46 549.786 1052.06 546.946 1052.58 544.175L1058.94 510.465C1058.94 510.465 1073.62 512.96 1072.48 532.503C1072.36 534.531 1072.78 536.556 1073.5 538.453L1079.12 553.151L1095.73 540.292L1086.62 514.574C1086.62 514.574 1074.44 517.923 1068.14 515.914C1055.22 511.789 1072.16 501.715 1077.52 500.644C1082.87 499.572 1094.66 495.286 1100.02 504.395C1105.38 513.503 1108.59 518.862 1108.59 518.862C1108.59 518.862 1114.49 498.501 1110.47 452.958C1110.29 450.909 1115.42 450.953 1116.86 452.42C1121.18 456.811 1128.05 470.178 1128.42 510.825C1128.42 510.825 1129.14 463.457 1137.26 458.585C1143.95 454.566 1147.34 477.749 1142.62 517.067C1142.62 517.067 1151.36 483.024 1157.62 482.964C1168.18 482.861 1157.76 573.88 1131.22 601.008L1089.84 592.263Z" fill="#F9B384"/>
<path d="M1139.95 578.335C1139.48 582.864 1138.96 587.252 1138.39 591.498V591.545C1136.5 606.643 1134.14 620.137 1131.41 631.696C1131.27 632.262 1131.17 632.781 1131.03 633.3C1122.96 666.373 1121.5 682.556 1093.95 678.215L1065.59 645.944L1065.31 645.614L1063.23 643.255L1068.99 626.27L1069.74 624.052L1073.99 611.691L1074.51 610.087L1081.77 588.809L1084.7 580.175L1139.95 578.335Z" fill="#F9B384"/>
<path d="M613.163 1753.43L605.944 1775.99C556.454 1792.24 527.588 1810.87 525.738 1832.6H668.851L680.324 1757.07C651.339 1764.15 628.112 1759.22 613.163 1753.43Z" fill="#1F3C88"/>
<path d="M631.108 1697.35L613.164 1753.43C628.112 1759.22 651.34 1764.14 680.325 1757.07L687.724 1708.36L631.108 1697.35Z" fill="#F9B384"/>
<path d="M875.784 1750.93L879.983 1693.81L812.751 1697.35L809.078 1750C837.543 1759.08 861.068 1755.53 875.784 1750.93Z" fill="#F9B384"/>
<path d="M956.65 1832.6C954.8 1810.87 929.521 1781.1 874.085 1774.02L875.783 1750.93C861.068 1755.53 837.542 1759.08 809.077 1750L803.314 1832.6H956.65Z" fill="#1F3C88"/>
<path d="M821.29 606.925L740.188 607.492V484.823H818.837L818.884 492.325L819.261 531.201L819.828 593.621L821.29 606.925Z" fill="#F9B384"/>
<path d="M819.262 537.099C804.684 552.432 766.656 535.117 750.615 518.227L818.885 498.222L819.262 537.099Z" fill="#E28B6D"/>
<path d="M838.087 456.515C838.04 465.573 837.473 475.057 835.964 484.115C832.001 508.838 821.527 530.21 797.37 530.871C740.282 532.522 724.005 499.873 713.248 473.169C702.491 446.418 719.948 382.112 719.948 382.112L793.832 374.799L834.407 408.061C834.407 408.061 838.323 430.66 838.087 456.515Z" fill="#F9B384"/>
<path d="M715.549 457.876C715.549 457.876 731.836 457.125 734.619 415.086C763.742 424.833 785.024 415.946 801.886 396.552C816.274 415.555 856.55 421.505 870.153 382.599C879.982 354.488 852.853 312.616 813.34 337.975C774.616 318.412 715.88 319.753 698.978 367.745C698.978 367.745 640.218 394.835 702.435 454.485C703.683 455.681 715.549 457.876 715.549 457.876Z" fill="#102048"/>
<path d="M940.145 1047.8L895.317 1725.66H789.947L816.29 1067.89L832.409 1060.42L940.145 1047.8Z" fill="#102048"/>
<path d="M665.705 955.052L591.789 1725.66H706.595L815.895 1085.58L940.136 1047.84L945.64 911.016L668.851 904.726L665.705 955.052Z" fill="#005596"/>
<path opacity="0.6" d="M682.186 956.734C744.893 979.245 892.015 953.519 922.564 922.165L900.858 878.752L658.871 910.91L682.186 956.734Z" fill="#102048"/>
<path d="M916.925 911.709C914.896 912.558 912.82 913.455 910.697 914.257C887.248 923.787 860.544 932.138 832.095 937.658C815.11 941.008 797.417 943.273 779.395 944.122C752.219 945.49 724.288 943.697 696.641 937.422L731.79 609.709L736.083 569.748C736.083 569.748 782.084 626.364 832.802 563.85L916.925 911.709Z" fill="white"/>
<path opacity="0.3" d="M779.395 944.122C752.219 945.49 724.288 943.697 696.641 937.422L731.79 609.709L744.34 591.568C775.337 666.962 807.089 833.909 779.395 944.122Z" fill="#1F3C88"/>
<path d="M740.212 556.773C775.159 705.157 789.54 857.843 738.05 1027.39C699.867 1041.92 658.294 1041.75 613.809 1028.97L624.816 720.724L365.719 898.829L349.992 801.717C449.592 706.481 621.797 562.609 740.212 556.773Z" fill="#708CD5"/>
<path opacity="0.3" d="M910.697 914.257C887.249 923.787 860.545 932.138 832.095 937.658C816.479 848.11 813.034 701.003 825.726 634.62L910.697 914.257Z" fill="#1F3C88"/>
<path opacity="0.6" d="M1131.41 631.695C1131.26 632.261 1131.17 632.78 1131.03 633.299C1122.96 666.372 1121.5 682.555 1093.94 678.215L1065.59 645.943L1065.31 645.613L1068.99 626.269L1069.74 624.052L1073.99 611.691L1074.51 610.086L1131.41 631.695Z" fill="#E28B6D"/>
<path d="M1126.5 661.749C1126.5 661.749 1056.91 809.187 1015.63 812.725C975.605 816.155 956.65 777.34 956.65 777.34L984.958 992.812C951.696 1008.38 915.415 1015.98 873.283 1008.52C835.869 887.034 821.727 729.948 818.943 555.004C849.233 556.891 909.223 559.479 930.701 573.286C969.232 598.056 1016.8 686.518 1016.8 686.518L1072.24 611.03L1126.5 661.749Z" fill="#708CD5"/>
<path d="M278.131 454.008C278.131 454.008 282.343 383.476 289.521 386.804C296.7 390.133 311.097 451.462 311.097 451.462L295.703 476.304L278.131 454.008Z" fill="#6F3428"/>
<path d="M489.918 1727.63L492.003 1750.84C495.684 1791.82 465.447 1828.02 424.471 1831.71L418.504 1832.24C377.528 1835.92 341.321 1805.68 337.638 1764.71L335.553 1741.49L489.918 1727.63Z" fill="#EE6F57"/>
<path d="M388.955 603.603L234.588 617.475L335.593 1741.51L489.96 1727.64L388.955 603.603Z" fill="#FBC343"/>
<path opacity="0.3" d="M337.146 585.537L282.322 590.463L370.857 1575.72L425.68 1570.79L337.146 585.537Z" stroke="#6F3428" stroke-width="8" stroke-miterlimit="10"/>
<path d="M489.898 1727.64L335.572 1741.51L331.514 1696.22L328.683 1664.75L319.955 1568.03L474.328 1554.16L483.01 1650.88L485.84 1682.35L489.898 1727.64Z" fill="#102048"/>
<path d="M482.984 1650.93L328.656 1664.79L331.484 1696.26L485.812 1682.4L482.984 1650.93Z" fill="#FBC343"/>
<path d="M234.547 617.478L277.425 445.634C277.425 445.634 292.226 452.199 310.178 441.113L388.924 603.609L234.547 617.478Z" fill="#EE6F57"/>
<path d="M724.09 450.763C723.399 448.228 711.88 444.744 709.34 444.042C705.417 442.958 701.137 442.425 697.309 444.154C683.378 450.448 685.239 470.398 692.457 480.881C696.546 486.821 702.532 491.391 709.495 493.385C712.025 494.109 735.99 494.396 734.939 490.544C734.934 490.527 724.112 450.849 724.09 450.763Z" fill="#F9B384"/>
<path d="M285.513 851.649C281.892 840.284 269.981 833.907 258.707 837.799C241.146 843.862 225.852 854.151 223.482 871.648C221.325 887.585 229.295 938.488 264.895 945.028L261.988 918.873C261.988 918.873 283.784 913.787 288.143 904.343C291.194 897.73 291.397 870.115 285.513 851.649Z" fill="#F9B384"/>
<path d="M945.77 676.582C947.642 687.721 949.235 698.894 950.764 710.074C952.347 721.247 953.603 732.459 955.038 743.65L958.696 777.297C959.762 788.531 960.806 799.768 961.498 811.045L959.666 811.26C957.736 800.127 956.158 788.953 954.603 777.776L950.397 744.192C949.212 732.973 947.847 721.773 946.808 710.536C945.716 699.305 944.688 688.067 943.939 676.797L945.77 676.582Z" fill="#1F3C88"/>
<path d="M628.49 674.766C628.465 687.276 628.16 699.773 627.79 712.266C627.473 724.762 626.829 737.242 626.365 749.732L624.319 787.168C623.484 799.639 622.626 812.11 621.413 824.563L619.571 824.476C619.538 811.964 619.859 799.468 620.203 786.973L621.696 749.51C622.412 737.034 622.946 724.547 623.81 712.078C624.619 699.606 625.493 687.136 626.648 674.679L628.49 674.766Z" fill="#1F3C88"/>
<path d="M781.348 449.591C782.345 454.04 780.513 458.239 777.255 458.969C773.998 459.699 770.549 456.683 769.551 452.234C768.554 447.785 770.386 443.586 773.644 442.856C776.902 442.125 780.35 445.141 781.348 449.591Z" fill="#102048"/>
<path d="M828.375 444.091C828.181 448.648 825.321 452.227 821.985 452.085C818.65 451.943 816.102 448.136 816.295 443.58C816.488 439.023 819.349 435.445 822.685 435.586C826.02 435.728 828.568 439.535 828.375 444.091Z" fill="#102048"/>
<path d="M802.153 447.828C803.77 451.726 803.514 455.93 804.558 459.127C805.091 460.742 805.826 462.164 806.843 463.048C807.79 463.911 809.323 464.472 811.27 465.226C813.275 466.002 815.405 467.384 816.86 469.437C818.403 471.434 818.829 474.894 817.433 477.158C816.178 479.425 814.372 480.668 812.822 481.82C811.202 482.911 809.645 484.073 807.965 485.093L806.752 483.704C807.989 482.176 809.353 480.791 810.653 479.334C811.994 477.954 813.225 476.606 813.699 475.361C814.7 473.178 812.561 470.792 809.464 469.558C807.868 468.83 805.569 468.19 803.713 466.293C801.923 464.467 801.04 462.185 800.685 460.055C799.905 455.684 800.797 451.945 800.373 448.309L802.153 447.828Z" fill="#E28B6D"/>
<path d="M758.836 437.645C759.532 434.845 761.237 432.2 763.652 430.29C766.026 428.317 769.129 427.248 772.204 427.089C778.399 426.714 784.533 430.238 787.08 435.447L785.635 436.593C781.539 433.378 777.027 431.611 772.431 431.779C767.82 431.901 763.637 434.272 760.507 438.425L758.836 437.645Z" fill="#102048"/>
<path d="M807.531 431.867C808.227 429.683 809.455 427.612 811.235 425.907C812.976 424.158 815.406 423.007 817.931 422.593C822.999 421.754 828.445 424.333 830.442 428.834L828.966 429.94C825.648 427.713 822.036 426.768 818.625 427.237C816.918 427.465 815.297 428.106 813.697 429.039C812.123 430.02 810.689 431.361 809.12 432.805L807.531 431.867Z" fill="#102048"/>
<path d="M781.436 493.52C789.673 506.413 800.65 507.815 809.127 494.244L781.436 493.52Z" fill="white"/>
<path opacity="0.4" d="M838.306 453.37C838.259 462.428 837.472 475.057 835.962 484.116C830.253 482.276 826.102 476.944 826.102 470.575C826.103 463.451 831.559 454.455 838.306 453.37Z" fill="#FC8879"/>
<path opacity="0.4" d="M761.324 494.218C769.726 494.218 776.538 487.406 776.538 479.003C776.538 470.601 769.726 463.789 761.324 463.789C752.921 463.789 746.109 470.601 746.109 479.003C746.109 487.406 752.921 494.218 761.324 494.218Z" fill="#FC8879"/>
<path d="M714.119 465.919C711.113 463.879 708.356 461.643 705.611 460.319C704.251 459.65 702.986 459.248 701.858 459.345C700.719 459.426 699.408 460.095 697.934 461.145L696.385 460.143C697.026 458.261 698.381 456.145 700.867 455.323C703.337 454.467 705.841 455.156 707.694 456.112C711.451 458.163 714.022 461.188 715.586 464.805L714.119 465.919Z" fill="#E28B6D"/>
<path opacity="0.6" d="M288.142 904.342L266.245 970.878L261.723 918.88C275.331 915.919 282.761 910.469 288.142 904.342Z" fill="#6F3428"/>
<path d="M-73.7383 1833.04H2976.3" stroke="#102048" stroke-width="8" stroke-miterlimit="10"/>
</g>
<defs>
<clipPath id="clip0_269_59">
<rect width="3000" height="2000" fill="white"/>
</clipPath>
</defs>
</svg>
